ffmpeg version 3.4.8-0ubuntu0.2 Copyright (c) 2000-2020 the FFmpeg developers
  built with gcc 7 (Ubuntu 7.5.0-3ubuntu1~18.04)
  configuration: --prefix=/usr --extra-version=0ubuntu0.2 --toolchain=hardened --libdir=/usr/lib/x86_64-linux-gnu --incdir=/usr/include/x86_64-linux-gnu --enable-gpl --disable-stripping --enable-avresample --enable-avisynth --enable-gnutls --enable-ladspa --enable-libass --enable-libbluray --enable-libbs2b --enable-libcaca --enable-libcdio --enable-libflite --enable-libfontconfig --enable-libfreetype --enable-libfribidi --enable-libgme --enable-libgsm --enable-libmp3lame --enable-libmysofa --enable-libopenjpeg --enable-libopenmpt --enable-libopus --enable-libpulse --enable-librubberband --enable-librsvg --enable-libshine --enable-libsnappy --enable-libsoxr --enable-libspeex --enable-libssh --enable-libtheora --enable-libtwolame --enable-libvorbis --enable-libvpx --enable-libwavpack --enable-libwebp --enable-libx265 --enable-libxml2 --enable-libxvid --enable-libzmq --enable-libzvbi --enable-omx --enable-openal --enable-opengl --enable-sdl2 --enable-libdc1394 --enable-libdrm --enable-libiec61883 --enable-chromaprint --enable-frei0r --enable-libopencv --enable-libx264 --enable-shared
  libavutil      55. 78.100 / 55. 78.100
  libavcodec     57.107.100 / 57.107.100
  libavformat    57. 83.100 / 57. 83.100
  libavdevice    57. 10.100 / 57. 10.100
  libavfilter     6.107.100 /  6.107.100
  libavresample   3.  7.  0 /  3.  7.  0
  libswscale      4.  8.100 /  4.  8.100
  libswresample   2.  9.100 /  2.  9.100
  libpostproc    54.  7.100 / 54.  7.100
[rawvideo @ 0x5613d5c43a20] Estimating duration from bitrate, this may be inaccurate
Input #0, rawvideo, from '../../SVC-Encoder-20220109T061506Z-001/SVC-Encoder/Dataset/RollerCoaster/ERP_8x8/tile_yuv/Tile_23_480x240.yuv':
  Duration: 00:00:10.00, start: 0.000000, bitrate: 41472 kb/s
    Stream #0:0: Video: rawvideo (I420 / 0x30323449), yuv420p, 480x240, 41472 kb/s, 30 tbr, 30 tbn, 30 tbc
Stream mapping:
  Stream #0:0 -> #0:0 (rawvideo (native) -> h264 (libx264))
Press [q] to stop, [?] for help
[libx264 @ 0x5613d5c50c60] using cpu capabilities: MMX2 SSE2Fast LZCNT SSSE3 SSE4.2 AVX
[libx264 @ 0x5613d5c50c60] profile High, level 2.1
Output #0, rawvideo, to 'RollerCoaster_Tile_23_480x240_x264_QP_20.h264':
  Metadata:
    encoder         : Lavf57.83.100
    Stream #0:0: Video: h264 (libx264), yuv420p, 480x240, q=-1--1, 30 fps, 30 tbn, 30 tbc
    Metadata:
      encoder         : Lavc57.107.100 libx264
    Side data:
      cpb: bitrate max/min/avg: 0/0/0 buffer size: 0 vbv_delay: -1
frame=  176 fps=0.0 q=26.0 PSNR=Y:nan U:nan V:nan *:nan size=      80kB time=00:00:04.43 bitrate= 147.2kbits/s speed=8.84x    frame=  300 fps=0.0 q=26.0 LPSNR=Y:inf U:inf V:inf *:inf size=     166kB time=00:00:09.93 bitrate= 137.3kbits/s speed=10.6x    
video:166kB audio:0kB subtitle:0kB other streams:0kB global headers:0kB muxing overhead: 0.000000%
[libx264 @ 0x5613d5c50c60] frame I:2     Avg QP:18.66  size:  9985  PSNR Mean Y:49.68 U:53.07 V:56.32 Avg:50.74 Global:50.70
[libx264 @ 0x5613d5c50c60] frame P:78    Avg QP:19.60  size:  1375  PSNR Mean Y:47.65 U:52.10 V:55.00 Avg:48.85 Global:48.82
[libx264 @ 0x5613d5c50c60] frame B:220   Avg QP:25.45  size:   196  PSNR Mean Y:47.39 U:51.91 V:54.85 Avg:48.60 Global:48.57
[libx264 @ 0x5613d5c50c60] consecutive B-frames:  1.0%  2.7%  3.0% 93.3%
[libx264 @ 0x5613d5c50c60] mb I  I16..4: 32.0% 56.0% 12.0%
[libx264 @ 0x5613d5c50c60] mb P  I16..4:  1.6%  0.5%  0.0%  P16..4: 39.3% 13.6%  5.9%  0.0%  0.0%    skip:39.2%
[libx264 @ 0x5613d5c50c60] mb B  I16..4:  0.0%  0.0%  0.0%  B16..8: 33.7%  1.1%  0.0%  direct: 0.0%  skip:65.1%  L0:40.7% L1:58.4% BI: 0.9%
[libx264 @ 0x5613d5c50c60] 8x8 transform intra:40.4% inter:71.8%
[libx264 @ 0x5613d5c50c60] coded y,uvDC,uvAC intra: 36.7% 55.9% 12.3% inter: 5.8% 6.4% 0.0%
[libx264 @ 0x5613d5c50c60] i16 v,h,dc,p: 30% 33% 24% 13%
[libx264 @ 0x5613d5c50c60] i8 v,h,dc,ddl,ddr,vr,hd,vl,hu:  6% 32% 24%  4%  5%  2%  9%  4% 15%
[libx264 @ 0x5613d5c50c60] i4 v,h,dc,ddl,ddr,vr,hd,vl,hu:  9% 29% 23%  5%  5%  2% 10%  2% 16%
[libx264 @ 0x5613d5c50c60] i8c dc,h,v,p: 49% 37%  8%  6%
[libx264 @ 0x5613d5c50c60] Weighted P-Frames: Y:0.0% UV:0.0%
[libx264 @ 0x5613d5c50c60] ref P L0: 61.7% 14.5% 18.7%  5.2%
[libx264 @ 0x5613d5c50c60] ref B L0: 81.1% 16.2%  2.7%
[libx264 @ 0x5613d5c50c60] ref B L1: 85.8% 14.2%
[libx264 @ 0x5613d5c50c60] PSNR Mean Y:47.469 U:51.965 V:54.899 Avg:48.679 Global:48.647 kb/s:136.34
